<svg xmlns="http://www.w3.org/2000/svg" width="256" height="256" viewBox="0 0 256 256">
  <defs>
    <radialGradient id="bg" cx="50%" cy="45%" r="70%">
      <stop offset="0%" stop-color="#ffd8e8"/>
      <stop offset="100%" stop-color="#ff7fb0"/>
    </radialGradient>
    <filter id="shadow" x="-20%" y="-20%" width="140%" height="140%">
      <feDropShadow dx="0" dy="4" stdDeviation="6" flood-color="#9f2d64" flood-opacity="0.25"/>
    </filter>
  </defs>

  <g filter="url(#shadow)" transform="translate(128 128)">
    <g fill="url(#bg)" stroke="#d64d84" stroke-width="6">
      <path d="M0,-92 C24,-86 42,-64 42,-40 C42,-16 22,-4 0,-10 C-22,-4 -42,-16 -42,-40 C-42,-64 -24,-86 0,-92 Z"/>
      <path d="M87,-28 C91,-4 79,23 59,35 C39,47 18,39 8,19 C-6,1 -7,-21 10,-38 C27,-55 53,-52 87,-28 Z" transform="rotate(72)"/>
      <path d="M87,-28 C91,-4 79,23 59,35 C39,47 18,39 8,19 C-6,1 -7,-21 10,-38 C27,-55 53,-52 87,-28 Z" transform="rotate(144)"/>
      <path d="M87,-28 C91,-4 79,23 59,35 C39,47 18,39 8,19 C-6,1 -7,-21 10,-38 C27,-55 53,-52 87,-28 Z" transform="rotate(216)"/>
      <path d="M87,-28 C91,-4 79,23 59,35 C39,47 18,39 8,19 C-6,1 -7,-21 10,-38 C27,-55 53,-52 87,-28 Z" transform="rotate(288)"/>
    </g>

    <circle cx="0" cy="0" r="44" fill="#fffafc" stroke="#d64d84" stroke-width="6"/>
    <text x="0" y="0" text-anchor="middle" dominant-baseline="central" font-family="Segoe UI, Meiryo, Arial, sans-serif" font-size="62" font-weight="700" fill="#b32163">V</text>
  </g>
</svg>
